<?xml version="1.0" encoding="UTF-8"?>
<svg xmlns="http://www.w3.org/2000/svg" version="1.1" viewBox="0 0 80 80">
  <!-- Generator: Adobe Illustrator 29.3.1, SVG Export Plug-In . SVG Version: 2.1.0 Build 151)  -->
  <defs>
    <style>
      .st0 {
        fill: none;
      }

      .st1 {
        fill: #fff;
        stroke: #231f20;
        stroke-miterlimit: 10;
      }
    </style>
  </defs>
  <g id="Layer_1">
    <path class="st1" d="M40,7.09C21.85,7.09,7.09,21.85,7.09,40s14.76,32.91,32.91,32.91,32.91-14.76,32.91-32.91S58.15,7.09,40,7.09ZM40,69c-16.02,0-29-12.98-29-29s12.98-29,29-29,29,12.98,29,29-12.98,29-29,29Z"/>
  </g>
  <g id="Layer_2">
    <g>
      <g>
        <path class="st0" d="M40,54.73c-8.12,0-14.73-6.61-14.73-14.73s6.61-14.73,14.73-14.73,14.73,6.61,14.73,14.73-6.61,14.73-14.73,14.73Z"/>
        <rect class="st1" x="38.94" y="48.81" width="2.12" height="11.83" rx="1.06" ry="1.06" transform="translate(80 109.46) rotate(180)"/>
        <rect class="st1" x="26.19" y="41.45" width="2.12" height="11.83" rx="1.06" ry="1.06" transform="translate(-.06 94.69) rotate(-120.1)"/>
        <rect class="st1" x="38.94" y="19.36" width="2.12" height="11.83" rx="1.06" ry="1.06"/>
        <rect class="st1" x="51.69" y="26.72" width="2.12" height="11.83" rx="1.06" ry="1.06" transform="translate(54.53 -29.37) rotate(59.9)"/>
        <rect class="st1" x="51.69" y="41.45" width="2.12" height="11.83" rx="1.06" ry="1.06" transform="translate(120.19 25.48) rotate(120.1)"/>
        <rect class="st1" x="26.19" y="26.72" width="2.12" height="11.83" rx="1.06" ry="1.06" transform="translate(-14.65 39.84) rotate(-59.9)"/>
      </g>
      <circle class="st1" cx="40" cy="40" r="5.73"/>
    </g>
  </g>
</svg>