<?xml version="1.0" encoding="UTF-8"?>
<svg xmlns="http://www.w3.org/2000/svg" version="1.1" viewBox="0 0 80 80">
  <!-- Generator: Adobe Illustrator 29.3.1, SVG Export Plug-In . SVG Version: 2.1.0 Build 151)  -->
  <defs>
    <style>
      .st0 {
        fill: #fff;
        stroke: #231f20;
        stroke-miterlimit: 10;
      }
    </style>
  </defs>
  <g id="Layer_1">
    <path class="st0" d="M40,7.09C21.85,7.09,7.09,21.85,7.09,40s14.76,32.91,32.91,32.91,32.91-14.76,32.91-32.91S58.15,7.09,40,7.09ZM40,69c-16.02,0-29-12.98-29-29s12.98-29,29-29,29,12.98,29,29-12.98,29-29,29Z"/>
  </g>
  <g id="Layer_2">
    <path class="st0" d="M51.41,52.69c-1.77,1.13-3.79,1.95-5.99,2.42-9.16,1.93-18.03-3.26-19.79-11.6s4.26-16.67,13.42-18.6c3.21-.68,6.38-.49,9.21.42-5.61,3.53-8.76,9.86-7.43,16.2,1.14,5.43,5.29,9.52,10.58,11.18Z"/>
  </g>
</svg>